<?xml version="1.0" encoding="utf-8"?>
<!-- Generator: Adobe Illustrator 16.0.0, SVG Export Plug-In . SVG Version: 6.00 Build 0)  -->
<!DOCTYPE svg PUBLIC "-//W3C//DTD SVG 1.1//EN" "http://www.w3.org/Graphics/SVG/1.1/DTD/svg11.dtd">
<svg version="1.1" id="Layer_1" xmlns="http://www.w3.org/2000/svg" xmlns:xlink="http://www.w3.org/1999/xlink" x="0px" y="0px"
	 width="79.086px" height="152.229px" viewBox="0 0 79.086 152.229" enable-background="new 0 0 79.086 152.229"
	 xml:space="preserve">
<g id="Lable">
	<text transform="matrix(0 1 -1 0 10.1929 17.8101)" fill="#FFFFFF" font-family="'ArialRoundedMTBold'" font-size="2.5">3V3</text>
	<text transform="matrix(0 1 -1 0 10.1929 25.5723)" fill="#FFFFFF" font-family="'ArialRoundedMTBold'" font-size="2.5">EN</text>
	<text transform="matrix(0 1 -1 0 10.1929 32.0283)" fill="#FFFFFF" font-family="'ArialRoundedMTBold'" font-size="2.5">SVP</text>
	<text transform="matrix(0 1 -1 0 10.1929 39.1118)" fill="#FFFFFF" font-family="'ArialRoundedMTBold'" font-size="2.5">SVN</text>
	<text transform="matrix(0 1 -1 0 10.1929 46.0894)" fill="#FFFFFF" font-family="'ArialRoundedMTBold'" font-size="2.5">IO34</text>
	<text transform="matrix(0 1 -1 0 10.1929 53.2896)" fill="#FFFFFF" font-family="'ArialRoundedMTBold'" font-size="2.5">IO35</text>
	<text transform="matrix(0 1 -1 0 10.1929 60.4893)" fill="#FFFFFF" font-family="'ArialRoundedMTBold'" font-size="2.5">IO32</text>
	<text transform="matrix(0 1 -1 0 10.1929 67.689)" fill="#FFFFFF" font-family="'ArialRoundedMTBold'" font-size="2.5">IO33</text>
	<text transform="matrix(0 1 -1 0 10.1929 74.8892)" fill="#FFFFFF" font-family="'ArialRoundedMTBold'" font-size="2.5">IO25</text>
	<text transform="matrix(0 1 -1 0 10.1929 82.0884)" fill="#FFFFFF" font-family="'ArialRoundedMTBold'" font-size="2.5">IO26</text>
	<text transform="matrix(0 1 -1 0 10.1929 89.2886)" fill="#FFFFFF" font-family="'ArialRoundedMTBold'" font-size="2.5">IO27</text>
	<text transform="matrix(0 1 -1 0 10.1929 96.4888)" fill="#FFFFFF" font-family="'ArialRoundedMTBold'" font-size="2.5">IO14</text>
	<text transform="matrix(0 1 -1 0 10.1929 103.689)" fill="#FFFFFF" font-family="'ArialRoundedMTBold'" font-size="2.5">IO12</text>
	<text transform="matrix(0 1 -1 0 10.1929 110.8911)" fill="#FFFFFF" font-family="'ArialRoundedMTBold'" font-size="2.5">GND</text>
	<text transform="matrix(0 1 -1 0 10.1929 118.0884)" fill="#FFFFFF" font-family="'ArialRoundedMTBold'" font-size="2.5">IO13</text>
	<text transform="matrix(0 1 -1 0 10.1929 125.6528)" fill="#FFFFFF" font-family="'ArialRoundedMTBold'" font-size="2.5">SD2</text>
	<text transform="matrix(0 1 -1 0 10.1929 132.854)" fill="#FFFFFF" font-family="'ArialRoundedMTBold'" font-size="2.5">SD3</text>
	<text transform="matrix(0 1 -1 0 10.1929 139.6646)" fill="#FFFFFF" font-family="'ArialRoundedMTBold'" font-size="2.5">CMD</text>
	<text transform="matrix(0 1 -1 0 10.1929 148.1528)" fill="#FFFFFF" font-family="'ArialRoundedMTBold'" font-size="2.5">5V</text>
	<text transform="matrix(0 -1 1 0 68.7739 152.3638)" fill="#FFFFFF" font-family="'ArialRoundedMTBold'" font-size="2.5">CLK</text>
	<text transform="matrix(0 -1 1 0 68.7739 145.0591)" fill="#FFFFFF" font-family="'ArialRoundedMTBold'" font-size="2.5">SD0</text>
	<text transform="matrix(0 -1 1 0 68.7739 137.8599)" fill="#FFFFFF" font-family="'ArialRoundedMTBold'" font-size="2.5">SD1</text>
	<text transform="matrix(0 -1 1 0 68.7739 131.0229)" fill="#FFFFFF" font-family="'ArialRoundedMTBold'" font-size="2.5">IO15</text>
	<text transform="matrix(0 -1 1 0 68.7739 123.0806)" fill="#FFFFFF" font-family="'ArialRoundedMTBold'" font-size="2.5">IO2</text>
	<text transform="matrix(0 -1 1 0 68.7739 115.8794)" fill="#FFFFFF" font-family="'ArialRoundedMTBold'" font-size="2.5">IO0</text>
	<text transform="matrix(0 -1 1 0 68.7739 108.6802)" fill="#FFFFFF" font-family="'ArialRoundedMTBold'" font-size="2.5">IO4</text>
	<text transform="matrix(0 -1 1 0 68.7739 102.2241)" fill="#FFFFFF" font-family="'ArialRoundedMTBold'" font-size="2.5">IO16</text>
	<text transform="matrix(0 -1 1 0 68.7739 95.0229)" fill="#FFFFFF" font-family="'ArialRoundedMTBold'" font-size="2.5">IO17</text>
	<text transform="matrix(0 -1 1 0 68.7739 87.0806)" fill="#FFFFFF" font-family="'ArialRoundedMTBold'" font-size="2.5">IO5</text>
	<text transform="matrix(0 -1 1 0 68.7739 80.6245)" fill="#FFFFFF" font-family="'ArialRoundedMTBold'" font-size="2.5">IO18</text>
	<text transform="matrix(0 -1 1 0 68.7739 73.4233)" fill="#FFFFFF" font-family="'ArialRoundedMTBold'" font-size="2.5">IO19</text>
	<text transform="matrix(0 -1 1 0 68.7739 66.2222)" fill="#FFFFFF" font-family="'ArialRoundedMTBold'" font-size="2.5">GND</text>
	<text transform="matrix(0 -1 1 0 68.7739 59.0229)" fill="#FFFFFF" font-family="'ArialRoundedMTBold'" font-size="2.5">IO21</text>
	<text transform="matrix(0 -1 1 0 68.7739 52.2793)" fill="#FFFFFF" font-family="'ArialRoundedMTBold'" font-size="2.5">RXD0</text>
	<text transform="matrix(0 -1 1 0 68.7739 44.9624)" fill="#FFFFFF" font-family="'ArialRoundedMTBold'" font-size="2.5">TXD0</text>
	<text transform="matrix(0 -1 1 0 68.7739 37.4233)" fill="#FFFFFF" font-family="'ArialRoundedMTBold'" font-size="2.5">IO22</text>
	<text transform="matrix(0 -1 1 0 68.7739 30.2222)" fill="#FFFFFF" font-family="'ArialRoundedMTBold'" font-size="2.5">IO23</text>
	<text transform="matrix(0 -1 1 0 68.7739 23.021)" fill="#FFFFFF" font-family="'ArialRoundedMTBold'" font-size="2.5">GND</text>
</g>
<g id="overlay">
	<polygon id="basetip" fill="#FFFFFF" stroke="#FFFFFF" stroke-miterlimit="10" points="61.666,52.43 17.332,52.43 17.332,14.6 
		17.332,0 61.666,0 	"/>
	<path id="chip" fill="#FFFFFF" d="M60.499,48.431c0,1.565-1.269,2.834-2.834,2.834H21.333c-1.565,0-2.835-1.269-2.835-2.834V18.434
		c0-1.565,1.27-2.834,2.835-2.834h36.331c1.565,0,2.834,1.269,2.834,2.834V48.431z"/>
	<path id="path124" fill="#FFFFFF" d="M28.471,23.99v0.585h1.394v0.615h-1.394v0.802h-0.723v-2.62h2.265v0.618H28.471z"/>
	<path id="path126" fill="#FFFFFF" d="M30.77,23.885c-0.221,0-0.386-0.127-0.386-0.333c0-0.191,0.165-0.326,0.386-0.326
		c0.232,0,0.393,0.134,0.393,0.326C31.163,23.758,31.001,23.885,30.77,23.885z M30.433,25.993v-1.903h0.673v1.903H30.433z"/>
	<text transform="matrix(1 0 0 1 33.7368 25.9927)" fill="#FFFFFF" font-family="'ArialRoundedMTBold'" font-size="3.1521">ESP-WROOM-32</text>
	<g id="esplogo" transform="translate(89.520575,-66.898955)">
		<path id="path3351" fill="#FFFFFF" d="M-43.689,106.774c-1.114-0.076-2.118-0.485-2.961-1.206
			c-0.183-0.157-0.477-0.462-0.634-0.657c-0.141-0.177-0.332-0.455-0.436-0.636c-0.358-0.627-0.578-1.326-0.646-2.055
			c-0.021-0.227-0.021-0.663,0-0.893c0.104-1.127,0.567-2.163,1.342-2.991c0.045-0.049,0.088-0.088,0.096-0.088
			c0.017,0,0.253,0.233,0.253,0.248c0,0.005-0.045,0.058-0.102,0.116c-0.534,0.563-0.949,1.348-1.126,2.131
			c-0.083,0.368-0.111,0.629-0.111,1.029c0,0.325,0.013,0.494,0.063,0.784c0.153,0.912,0.596,1.782,1.245,2.448
			c0.755,0.775,1.728,1.254,2.811,1.382c0.198,0.023,0.634,0.032,0.839,0.017c1.077-0.082,2.051-0.506,2.834-1.235l0.115-0.107
			l0.129,0.129l0.129,0.128l-0.048,0.05c-0.025,0.027-0.104,0.1-0.175,0.162c-0.804,0.708-1.793,1.133-2.868,1.232
			C-43.113,106.78-43.525,106.786-43.689,106.774L-43.689,106.774z M-43.944,105.968c-0.177-0.025-0.381-0.065-0.532-0.107
			l-0.12-0.033l-0.192-0.17c-0.107-0.093-0.2-0.175-0.207-0.182c-0.01-0.009,0.001-0.032,0.055-0.104
			c0.13-0.177,0.229-0.41,0.268-0.627c0.022-0.129,0.022-0.354-0.001-0.486c-0.091-0.516-0.457-0.953-0.944-1.125
			c-0.142-0.05-0.263-0.074-0.443-0.086c-0.279-0.02-0.445-0.063-0.671-0.175c-0.302-0.15-0.538-0.383-0.694-0.685
			c-0.111-0.218-0.174-0.447-0.173-0.642c0.003-0.226,0.057-0.573,0.111-0.703c0.205-0.502,0.646-0.858,1.191-0.966
			c0.131-0.026,0.501-0.026,0.715,0c1.039,0.128,1.966,0.566,2.707,1.28c0.369,0.356,0.691,0.794,0.926,1.265
			c0.247,0.494,0.404,1.037,0.469,1.616c0.021,0.198,0.024,0.695,0.006,0.885c-0.028,0.264-0.097,0.652-0.121,0.681
			c-0.029,0.036-0.491,0.206-0.712,0.263l-0.104,0.026l-0.282-0.106c-0.157-0.059-0.288-0.11-0.291-0.114
			c-0.005-0.003,0.007-0.047,0.023-0.097c0.068-0.192,0.128-0.458,0.16-0.717c0.02-0.156,0.016-0.583-0.006-0.753
			c-0.068-0.533-0.243-1.002-0.534-1.442c-0.542-0.82-1.415-1.353-2.405-1.466c-0.316-0.037-0.425-0.011-0.5,0.12
			c-0.026,0.043-0.029,0.061-0.029,0.135c0,0.098,0.014,0.132,0.081,0.197c0.054,0.054,0.111,0.07,0.299,0.083
			c0.858,0.063,1.637,0.523,2.112,1.249c0.542,0.826,0.604,1.894,0.159,2.771c-0.102,0.199-0.128,0.239-0.157,0.238
			C-43.794,105.987-43.868,105.978-43.944,105.968L-43.944,105.968z M-46.231,105.225c-0.287-0.052-0.511-0.26-0.582-0.54
			c-0.024-0.098-0.026-0.255-0.004-0.353c0.046-0.196,0.199-0.39,0.377-0.476c0.13-0.063,0.211-0.079,0.365-0.073
			c0.108,0.003,0.14,0.009,0.213,0.037c0.219,0.082,0.375,0.246,0.445,0.465c0.059,0.182,0.043,0.368-0.044,0.546
			c-0.089,0.179-0.266,0.326-0.455,0.376C-45.993,105.229-46.162,105.238-46.231,105.225L-46.231,105.225z M-40.709,104.578
			l-0.212-0.006l-0.003-0.111c-0.003-0.178-0.023-0.448-0.045-0.623c-0.118-0.929-0.504-1.835-1.097-2.577
			c-0.757-0.948-1.826-1.601-3.02-1.843c-0.282-0.058-0.505-0.083-0.853-0.1l-0.244-0.012l-0.006-0.34
			c-0.002-0.187-0.002-0.346,0.001-0.354c0.009-0.02,0.215-0.188,0.338-0.274c0.118-0.086,0.288-0.193,0.412-0.263l0.088-0.05
			l0.087,0.012c1.746,0.233,3.306,1.146,4.364,2.553c0.639,0.849,1.062,1.857,1.228,2.926c0.015,0.096,0.027,0.189,0.027,0.204
			c0,0.076-0.306,0.544-0.508,0.778l-0.072,0.084h-0.138C-40.434,104.583-40.591,104.581-40.709,104.578L-40.709,104.578z
			 M-39.452,102.185c-0.006-0.013-0.031-0.083-0.059-0.156c-0.116-0.317-0.331-0.771-0.504-1.067
			c-0.449-0.767-1.029-1.439-1.718-1.986c-0.576-0.458-1.24-0.833-1.943-1.093c-0.074-0.028-0.136-0.056-0.136-0.063
			c0-0.008,0.021-0.069,0.044-0.136c0.051-0.144,0.027-0.131,0.253-0.14c0.537-0.023,1.154,0.085,1.694,0.298
			c1.249,0.492,2.207,1.586,2.536,2.899c0.092,0.365,0.123,0.636,0.123,1.052c0,0.265-0.002,0.313-0.016,0.321
			c-0.008,0.005-0.072,0.028-0.141,0.052l-0.126,0.042L-39.452,102.185L-39.452,102.185z"/>
	</g>
	<path fill="#FFFFFF" d="M29.824,22.137H30.5c1.11,0,2.014,0.903,2.014,2.012v1.213c0,1.11-0.903,2.013-2.014,2.013h-0.806
		c-0.756,0.874-1.874,1.427-3.12,1.427c-1.246,0-2.364-0.553-3.12-1.427h-0.837c-1.109,0-2.013-0.903-2.013-2.013v-1.213
		c0-1.109,0.903-2.012,2.013-2.012h0.708c0.755-0.964,1.931-1.585,3.25-1.585S29.069,21.173,29.824,22.137z M26.006,26.988
		c1.495,0,4.494,0,4.494,0c0.896,0,1.626-0.729,1.626-1.625V24.15c0-0.896-0.73-1.625-1.626-1.625h-2.042
		c-0.896,0-1.625,0.729-1.625,1.625v1.213C26.834,26.03,26.508,26.622,26.006,26.988z M24.806,23.373h-0.741l-0.071,0.438
		c-0.06,0.371-0.131,0.827-0.157,1.137c-0.031-0.307-0.113-0.76-0.195-1.134l-0.09-0.441h-0.667l-0.089,0.441
		c-0.083,0.375-0.165,0.828-0.195,1.134c-0.026-0.311-0.097-0.767-0.157-1.137l-0.071-0.438h-0.749l0.625,2.62h0.662l0.12-0.569
		c0.086-0.404,0.164-0.895,0.18-1.085c0.015,0.19,0.093,0.681,0.179,1.085l0.12,0.569h0.67L24.806,23.373z M25.799,24.089h-0.674
		v1.903h0.674V24.089z M25.466,23.227c-0.215,0-0.389,0.147-0.389,0.329s0.174,0.329,0.389,0.329s0.389-0.147,0.389-0.329
		S25.681,23.227,25.466,23.227z"/>
</g>
<g id="copper0">
	<path id="connector38" fill="#9A916C" d="M71.8,22.096c-1.07,0-1.94-0.87-1.94-1.939c0-1.07,0.87-1.94,1.94-1.94
		s1.94,0.871,1.94,1.94C73.741,21.226,72.871,22.096,71.8,22.096z M71.8,19.216c-0.519,0-0.94,0.422-0.94,0.94
		c0,0.518,0.422,0.939,0.94,0.939s0.94-0.421,0.94-0.939C72.741,19.638,72.319,19.216,71.8,19.216z"/>
	<path id="connector37" fill="#9A916C" d="M71.8,29.296c-1.07,0-1.94-0.87-1.94-1.939c0-1.07,0.87-1.94,1.94-1.94
		s1.94,0.871,1.94,1.94C73.741,28.426,72.871,29.296,71.8,29.296z M71.8,26.417c-0.519,0-0.94,0.422-0.94,0.94
		c0,0.518,0.422,0.939,0.94,0.939s0.94-0.421,0.94-0.939C72.741,26.838,72.319,26.417,71.8,26.417z"/>
	<path id="connector36" fill="#9A916C" d="M71.8,36.496c-1.07,0-1.94-0.87-1.94-1.939c0-1.07,0.87-1.94,1.94-1.94
		s1.94,0.871,1.94,1.94C73.741,35.626,72.871,36.496,71.8,36.496z M71.8,33.616c-0.519,0-0.94,0.422-0.94,0.94
		c0,0.518,0.422,0.939,0.94,0.939s0.94-0.421,0.94-0.939C72.741,34.038,72.319,33.616,71.8,33.616z"/>
	<path id="connector35" fill="#9A916C" d="M71.8,43.696c-1.07,0-1.94-0.87-1.94-1.939c0-1.07,0.87-1.94,1.94-1.94
		s1.94,0.871,1.94,1.94C73.741,42.826,72.871,43.696,71.8,43.696z M71.8,40.816c-0.519,0-0.94,0.422-0.94,0.94
		c0,0.518,0.422,0.939,0.94,0.939s0.94-0.421,0.94-0.939C72.741,41.238,72.319,40.816,71.8,40.816z"/>
	<path id="connector34" fill="#9A916C" d="M71.8,50.896c-1.07,0-1.94-0.87-1.94-1.939c0-1.07,0.87-1.941,1.94-1.941
		s1.94,0.871,1.94,1.941C73.741,50.026,72.871,50.896,71.8,50.896z M71.8,48.016c-0.519,0-0.94,0.422-0.94,0.941
		c0,0.518,0.422,0.939,0.94,0.939s0.94-0.421,0.94-0.939C72.741,48.438,72.319,48.016,71.8,48.016z"/>
	<path id="connector33" fill="#9A916C" d="M71.8,58.096c-1.07,0-1.94-0.87-1.94-1.939c0-1.07,0.87-1.94,1.94-1.94
		s1.94,0.871,1.94,1.94C73.741,57.226,72.871,58.096,71.8,58.096z M71.8,55.216c-0.519,0-0.94,0.422-0.94,0.94
		c0,0.518,0.422,0.939,0.94,0.939s0.94-0.421,0.94-0.939C72.741,55.638,72.319,55.216,71.8,55.216z"/>
	<path id="connector32" fill="#9A916C" d="M71.8,65.296c-1.07,0-1.94-0.87-1.94-1.939c0-1.07,0.87-1.94,1.94-1.94
		s1.94,0.871,1.94,1.94C73.741,64.426,72.871,65.296,71.8,65.296z M71.8,62.417c-0.519,0-0.94,0.422-0.94,0.94
		c0,0.518,0.422,0.939,0.94,0.939s0.94-0.421,0.94-0.939C72.741,62.838,72.319,62.417,71.8,62.417z"/>
	<path id="connector31" fill="#9A916C" d="M71.8,72.497c-1.07,0-1.94-0.87-1.94-1.94c0-1.07,0.87-1.941,1.94-1.941
		s1.94,0.871,1.94,1.941C73.741,71.626,72.871,72.497,71.8,72.497z M71.8,69.616c-0.519,0-0.94,0.422-0.94,0.941
		c0,0.518,0.422,0.94,0.94,0.94s0.94-0.422,0.94-0.94C72.741,70.038,72.319,69.616,71.8,69.616z"/>
	<path id="connector30" fill="#9A916C" d="M71.8,79.696c-1.07,0-1.94-0.869-1.94-1.938c0-1.07,0.87-1.941,1.94-1.941
		s1.94,0.871,1.94,1.941C73.741,78.827,72.871,79.696,71.8,79.696z M71.8,76.816c-0.519,0-0.94,0.422-0.94,0.941
		c0,0.518,0.422,0.938,0.94,0.938s0.94-0.421,0.94-0.938C72.741,77.238,72.319,76.816,71.8,76.816z"/>
	<path id="connector29" fill="#9A916C" d="M71.8,86.897c-1.07,0-1.94-0.87-1.94-1.939c0-1.07,0.87-1.941,1.94-1.941
		s1.94,0.871,1.94,1.941C73.741,86.027,72.871,86.897,71.8,86.897z M71.8,84.016c-0.519,0-0.94,0.422-0.94,0.941
		c0,0.518,0.422,0.939,0.94,0.939s0.94-0.422,0.94-0.939C72.741,84.438,72.319,84.016,71.8,84.016z"/>
	<path id="connector28" fill="#9A916C" d="M71.8,94.096c-1.07,0-1.94-0.87-1.94-1.939c0-1.07,0.87-1.94,1.94-1.94
		s1.94,0.87,1.94,1.94C73.741,93.226,72.871,94.096,71.8,94.096z M71.8,91.216c-0.519,0-0.94,0.422-0.94,0.94
		c0,0.518,0.422,0.939,0.94,0.939s0.94-0.422,0.94-0.939C72.741,91.638,72.319,91.216,71.8,91.216z"/>
	<path id="connector27" fill="#9A916C" d="M71.8,101.296c-1.07,0-1.94-0.87-1.94-1.939c0-1.07,0.87-1.941,1.94-1.941
		s1.94,0.871,1.94,1.941C73.741,100.426,72.871,101.296,71.8,101.296z M71.8,98.416c-0.519,0-0.94,0.422-0.94,0.941
		c0,0.518,0.422,0.939,0.94,0.939s0.94-0.422,0.94-0.939C72.741,98.837,72.319,98.416,71.8,98.416z"/>
	<path id="connector26" fill="#9A916C" d="M71.8,108.497c-1.07,0-1.94-0.87-1.94-1.939c0-1.07,0.87-1.941,1.94-1.941
		s1.94,0.871,1.94,1.941C73.741,107.626,72.871,108.497,71.8,108.497z M71.8,105.616c-0.519,0-0.94,0.422-0.94,0.941
		c0,0.518,0.422,0.939,0.94,0.939s0.94-0.422,0.94-0.939C72.741,106.038,72.319,105.616,71.8,105.616z"/>
	<path id="connector25" fill="#9A916C" d="M71.8,115.697c-1.07,0-1.94-0.87-1.94-1.939c0-1.07,0.87-1.941,1.94-1.941
		s1.94,0.871,1.94,1.941C73.741,114.827,72.871,115.697,71.8,115.697z M71.8,112.816c-0.519,0-0.94,0.422-0.94,0.941
		c0,0.518,0.422,0.939,0.94,0.939s0.94-0.422,0.94-0.939C72.741,113.238,72.319,112.816,71.8,112.816z"/>
	<path id="connector24" fill="#9A916C" d="M71.8,122.897c-1.07,0-1.94-0.87-1.94-1.939c0-1.07,0.87-1.941,1.94-1.941
		s1.94,0.871,1.94,1.941C73.741,122.027,72.871,122.897,71.8,122.897z M71.8,120.016c-0.519,0-0.94,0.422-0.94,0.941
		c0,0.518,0.422,0.939,0.94,0.939s0.94-0.422,0.94-0.939C72.741,120.438,72.319,120.016,71.8,120.016z"/>
	<path id="connector23" fill="#9A916C" d="M71.8,130.096c-1.07,0-1.94-0.87-1.94-1.939c0-1.07,0.87-1.941,1.94-1.941
		s1.94,0.871,1.94,1.941C73.741,129.226,72.871,130.096,71.8,130.096z M71.8,127.215c-0.519,0-0.94,0.422-0.94,0.941
		c0,0.518,0.422,0.939,0.94,0.939s0.94-0.422,0.94-0.939C72.741,127.637,72.319,127.215,71.8,127.215z"/>
	<path id="connector22" fill="#9A916C" d="M71.8,137.296c-1.07,0-1.94-0.869-1.94-1.938c0-1.07,0.87-1.941,1.94-1.941
		s1.94,0.871,1.94,1.941C73.741,136.427,72.871,137.296,71.8,137.296z M71.8,134.417c-0.519,0-0.94,0.422-0.94,0.941
		c0,0.518,0.422,0.938,0.94,0.938s0.94-0.421,0.94-0.938C72.741,134.838,72.319,134.417,71.8,134.417z"/>
	<path id="connector21" fill="#9A916C" d="M71.8,144.497c-1.07,0-1.94-0.87-1.94-1.939c0-1.07,0.87-1.941,1.94-1.941
		s1.94,0.871,1.94,1.941C73.741,143.626,72.871,144.497,71.8,144.497z M71.8,141.616c-0.519,0-0.94,0.422-0.94,0.941
		c0,0.518,0.422,0.939,0.94,0.939s0.94-0.422,0.94-0.939C72.741,142.038,72.319,141.616,71.8,141.616z"/>
	<path id="connector20" fill="#9A916C" d="M71.8,151.697c-1.07,0-1.94-0.87-1.94-1.939c0-1.07,0.87-1.941,1.94-1.941
		s1.94,0.871,1.94,1.941C73.741,150.827,72.871,151.697,71.8,151.697z M71.8,148.816c-0.519,0-0.94,0.422-0.94,0.941
		c0,0.518,0.422,0.939,0.94,0.939s0.94-0.422,0.94-0.939C72.741,149.238,72.319,148.816,71.8,148.816z"/>
	<path id="connector1" fill="#9A916C" d="M6.999,22.096c-1.07,0-1.94-0.87-1.94-1.939c0-1.07,0.871-1.94,1.94-1.94
		s1.94,0.871,1.94,1.94C8.939,21.226,8.068,22.096,6.999,22.096z M6.999,19.216c-0.519,0-0.94,0.422-0.94,0.94
		c0,0.518,0.422,0.939,0.94,0.939s0.94-0.421,0.94-0.939C7.939,19.638,7.517,19.216,6.999,19.216z"/>
	<path id="connector2" fill="#9A916C" d="M6.999,29.296c-1.07,0-1.94-0.87-1.94-1.939c0-1.07,0.87-1.94,1.94-1.94
		s1.94,0.871,1.94,1.94C8.939,28.426,8.068,29.296,6.999,29.296z M6.999,26.417c-0.518,0-0.94,0.422-0.94,0.94
		c0,0.518,0.422,0.939,0.94,0.939c0.519,0,0.94-0.421,0.94-0.939C7.939,26.838,7.517,26.417,6.999,26.417z"/>
	<path id="connector3" fill="#9A916C" d="M6.999,36.496c-1.07,0-1.94-0.87-1.94-1.939c0-1.07,0.871-1.94,1.94-1.94
		s1.94,0.871,1.94,1.94C8.939,35.626,8.068,36.496,6.999,36.496z M6.999,33.616c-0.519,0-0.94,0.422-0.94,0.94
		c0,0.518,0.422,0.939,0.94,0.939s0.94-0.421,0.94-0.939C7.939,34.038,7.517,33.616,6.999,33.616z"/>
	<path id="connector4" fill="#9A916C" d="M6.999,43.696c-1.07,0-1.94-0.87-1.94-1.939c0-1.07,0.871-1.94,1.94-1.94
		s1.94,0.871,1.94,1.94C8.938,42.826,8.068,43.696,6.999,43.696z M6.999,40.816c-0.519,0-0.94,0.422-0.94,0.94
		c0,0.518,0.422,0.939,0.94,0.939c0.518,0,0.94-0.421,0.94-0.939C7.938,41.238,7.517,40.816,6.999,40.816z"/>
	<path id="connector5" fill="#9A916C" d="M6.999,50.896c-1.07,0-1.94-0.87-1.94-1.939c0-1.07,0.871-1.941,1.94-1.941
		s1.94,0.871,1.94,1.941C8.939,50.026,8.068,50.896,6.999,50.896z M6.999,48.016c-0.519,0-0.94,0.422-0.94,0.941
		c0,0.518,0.422,0.939,0.94,0.939s0.94-0.421,0.94-0.939C7.939,48.438,7.517,48.016,6.999,48.016z"/>
	<path id="connector6" fill="#9A916C" d="M6.999,58.096c-1.07,0-1.94-0.87-1.94-1.939c0-1.07,0.871-1.94,1.94-1.94
		c1.07,0,1.941,0.871,1.941,1.94C8.939,57.226,8.069,58.096,6.999,58.096z M6.999,55.216c-0.519,0-0.94,0.422-0.94,0.94
		c0,0.518,0.422,0.939,0.94,0.939c0.519,0,0.941-0.421,0.941-0.939C7.939,55.638,7.518,55.216,6.999,55.216z"/>
	<path id="connector7" fill="#9A916C" d="M6.999,65.296c-1.07,0-1.94-0.87-1.94-1.939c0-1.07,0.871-1.94,1.94-1.94
		s1.94,0.871,1.94,1.94C8.939,64.426,8.068,65.296,6.999,65.296z M6.999,62.417c-0.519,0-0.94,0.422-0.94,0.94
		c0,0.518,0.422,0.939,0.94,0.939s0.94-0.421,0.94-0.939C7.939,62.838,7.517,62.417,6.999,62.417z"/>
	<path id="connector8" fill="#9A916C" d="M6.999,72.497c-1.07,0-1.94-0.87-1.94-1.94c0-1.07,0.871-1.941,1.94-1.941
		s1.94,0.871,1.94,1.941C8.939,71.626,8.068,72.497,6.999,72.497z M6.999,69.616c-0.519,0-0.94,0.422-0.94,0.941
		c0,0.518,0.422,0.94,0.94,0.94s0.94-0.422,0.94-0.94C7.939,70.038,7.517,69.616,6.999,69.616z"/>
	<path id="connector9" fill="#9A916C" d="M6.999,79.696c-1.07,0-1.94-0.869-1.94-1.938c0-1.07,0.871-1.941,1.94-1.941
		s1.94,0.871,1.94,1.941C8.939,78.827,8.068,79.696,6.999,79.696z M6.999,76.816c-0.519,0-0.94,0.422-0.94,0.941
		c0,0.518,0.422,0.938,0.94,0.938s0.94-0.421,0.94-0.938C7.939,77.238,7.517,76.816,6.999,76.816z"/>
	<path id="connector10" fill="#9A916C" d="M6.999,86.897c-1.07,0-1.94-0.87-1.94-1.939c0-1.07,0.871-1.941,1.94-1.941
		s1.94,0.871,1.94,1.941C8.939,86.027,8.068,86.897,6.999,86.897z M6.999,84.016c-0.519,0-0.94,0.422-0.94,0.941
		c0,0.518,0.422,0.939,0.94,0.939s0.94-0.422,0.94-0.939C7.939,84.438,7.517,84.016,6.999,84.016z"/>
	<path id="connector11" fill="#9A916C" d="M6.999,94.096c-1.07,0-1.94-0.87-1.94-1.939c0-1.07,0.871-1.94,1.94-1.94
		s1.94,0.87,1.94,1.94C8.939,93.226,8.068,94.096,6.999,94.096z M6.999,91.216c-0.519,0-0.94,0.422-0.94,0.94
		c0,0.518,0.422,0.939,0.94,0.939s0.94-0.422,0.94-0.939C7.939,91.638,7.517,91.216,6.999,91.216z"/>
	<path id="connector12" fill="#9A916C" d="M6.999,101.296c-1.07,0-1.94-0.87-1.94-1.939c0-1.07,0.871-1.941,1.94-1.941
		s1.94,0.871,1.94,1.941C8.939,100.426,8.068,101.296,6.999,101.296z M6.999,98.416c-0.519,0-0.94,0.422-0.94,0.941
		c0,0.518,0.422,0.939,0.94,0.939s0.94-0.422,0.94-0.939C7.939,98.837,7.517,98.416,6.999,98.416z"/>
	<path id="connector13" fill="#9A916C" d="M6.999,108.497c-1.07,0-1.94-0.87-1.94-1.939c0-1.07,0.871-1.941,1.94-1.941
		s1.94,0.871,1.94,1.941C8.939,107.626,8.068,108.497,6.999,108.497z M6.999,105.616c-0.519,0-0.94,0.422-0.94,0.941
		c0,0.518,0.422,0.939,0.94,0.939s0.94-0.422,0.94-0.939C7.939,106.038,7.517,105.616,6.999,105.616z"/>
	<path id="connector14" fill="#9A916C" d="M6.999,115.697c-1.07,0-1.94-0.87-1.94-1.939c0-1.07,0.871-1.941,1.94-1.941
		s1.94,0.871,1.94,1.941C8.939,114.827,8.068,115.697,6.999,115.697z M6.999,112.816c-0.519,0-0.94,0.422-0.94,0.941
		c0,0.518,0.422,0.939,0.94,0.939s0.94-0.422,0.94-0.939C7.939,113.238,7.517,112.816,6.999,112.816z"/>
	<path id="connector15" fill="#9A916C" d="M6.999,122.897c-1.07,0-1.94-0.87-1.94-1.939c0-1.07,0.871-1.941,1.94-1.941
		s1.94,0.871,1.94,1.941C8.939,122.027,8.068,122.897,6.999,122.897z M6.999,120.016c-0.519,0-0.94,0.422-0.94,0.941
		c0,0.518,0.422,0.939,0.94,0.939s0.94-0.422,0.94-0.939C7.939,120.438,7.517,120.016,6.999,120.016z"/>
	<path id="connector16" fill="#9A916C" d="M6.999,130.096c-1.07,0-1.94-0.87-1.94-1.939c0-1.07,0.871-1.941,1.94-1.941
		s1.94,0.871,1.94,1.941C8.939,129.226,8.068,130.096,6.999,130.096z M6.999,127.215c-0.519,0-0.94,0.422-0.94,0.941
		c0,0.518,0.422,0.939,0.94,0.939s0.94-0.422,0.94-0.939C7.939,127.637,7.517,127.215,6.999,127.215z"/>
	<path id="connector17" fill="#9A916C" d="M6.999,137.296c-1.07,0-1.94-0.869-1.94-1.938c0-1.07,0.871-1.941,1.94-1.941
		s1.94,0.871,1.94,1.941C8.939,136.427,8.068,137.296,6.999,137.296z M6.999,134.417c-0.519,0-0.94,0.422-0.94,0.941
		c0,0.518,0.422,0.938,0.94,0.938s0.94-0.421,0.94-0.938C7.939,134.838,7.517,134.417,6.999,134.417z"/>
	<path id="connector18" fill="#9A916C" d="M6.999,144.497c-1.07,0-1.94-0.87-1.94-1.939c0-1.07,0.871-1.941,1.94-1.941
		s1.94,0.871,1.94,1.941C8.939,143.626,8.068,144.497,6.999,144.497z M6.999,141.616c-0.519,0-0.94,0.422-0.94,0.941
		c0,0.518,0.422,0.939,0.94,0.939s0.94-0.422,0.94-0.939C7.939,142.038,7.517,141.616,6.999,141.616z"/>
	<path id="connector19" fill="#9A916C" d="M6.999,151.697c-1.07,0-1.94-0.87-1.94-1.939c0-1.07,0.871-1.941,1.94-1.941
		s1.94,0.871,1.94,1.941C8.939,150.827,8.068,151.697,6.999,151.697z M6.999,148.816c-0.519,0-0.94,0.422-0.94,0.941
		c0,0.518,0.422,0.939,0.94,0.939s0.94-0.422,0.94-0.939C7.939,149.238,7.517,148.816,6.999,148.816z"/>
</g>
</svg>
